#define addnewbtn_icon_width 15
#define addnewbtn_icon_height 15
static unsigned char addnewbtn_icon_bits[] = {
   0x00, 0x00, 0x80, 0x00, 0x80, 0x00, 0x80, 0x00, 0x80, 0x00, 0x80, 0x00,
   0x80, 0x00, 0xfe, 0x3f, 0x80, 0x00, 0x80, 0x00, 0x80, 0x00, 0x80, 0x00,
   0x80, 0x00, 0x80, 0x00, 0x00, 0x00 };
