#define cross_width 10
#define cross_height 10
static unsigned char cross_bits[] = {
   0x00, 0x00, 0x00, 0x00, 0x84, 0x00, 0xc8, 0x00, 0x70, 0x00, 0x30, 0x00,
   0x58, 0x00, 0x8c, 0x00, 0x00, 0x00, 0x00, 0x00 };
