<svg width="480" height="300" viewBox="0 0 480 300" fill="none" xmlns="http://www.w3.org/2000/svg">
<g clip-path="url(#clip0_2_12)">
<rect x="34" y="45" width="349" height="211" fill="url(#paint0_linear_2_12)"/>
<path d="M301.833 132L254.75 84.9167L266.625 73.25L302.042 108.667L313.708 120.333L301.833 132ZM348.917 132L301.833 84.9167L313.5 73.0417L348.917 108.458L425.583 31.7917L437.25 43.6667L348.917 132ZM348.917 84.9167L337.042 73.25L378.292 32L390.167 43.6667L348.917 84.9167Z" fill="url(#paint1_linear_2_12)"/>
<path d="M85.005 176.286H76.276V203.849H71.589V176.286H62.903V172.029H85.005V176.286ZM102.46 175.727C99.4783 175.727 97.1276 176.988 95.4076 179.511C93.831 181.776 93.0426 184.585 93.0426 187.939C93.0426 191.322 93.831 194.145 95.4076 196.41C97.1276 198.933 99.4783 200.194 102.46 200.194C105.441 200.194 107.792 198.933 109.512 196.41C111.06 194.145 111.834 191.322 111.834 187.939C111.834 184.614 111.06 181.804 109.512 179.511C107.792 176.988 105.441 175.727 102.46 175.727ZM102.46 171.384C107.046 171.384 110.615 173.09 113.167 176.501C115.431 179.54 116.549 183.352 116.521 187.939C116.463 192.956 115.288 196.912 112.995 199.807C110.501 202.96 106.989 204.537 102.46 204.537C97.959 204.537 94.433 202.96 91.8816 199.807C89.531 196.854 88.3556 192.898 88.3556 187.939C88.3556 183.295 89.4736 179.468 91.7096 176.458C94.2323 173.075 97.8156 171.384 102.46 171.384ZM128.049 199.42H129.597C138.312 199.42 142.669 195.521 142.669 187.724C142.669 180.185 138.943 176.415 131.489 176.415H128.049V199.42ZM123.362 172.029H131.489C136.879 172.029 140.935 173.52 143.658 176.501C146.095 179.196 147.313 182.98 147.313 187.853C147.313 193.357 145.565 197.471 142.067 200.194C139 202.631 134.743 203.849 129.296 203.849H123.362V172.029ZM167.548 175.727C164.566 175.727 162.216 176.988 160.496 179.511C158.919 181.776 158.131 184.585 158.131 187.939C158.131 191.322 158.919 194.145 160.496 196.41C162.216 198.933 164.566 200.194 167.548 200.194C170.529 200.194 172.88 198.933 174.6 196.41C176.148 194.145 176.922 191.322 176.922 187.939C176.922 184.614 176.148 181.804 174.6 179.511C172.88 176.988 170.529 175.727 167.548 175.727ZM167.548 171.384C172.134 171.384 175.703 173.09 178.255 176.501C180.519 179.54 181.637 183.352 181.609 187.939C181.551 192.956 180.376 196.912 178.083 199.807C175.589 202.96 172.077 204.537 167.548 204.537C163.047 204.537 159.521 202.96 156.97 199.807C154.619 196.854 153.444 192.898 153.444 187.939C153.444 183.295 154.562 179.468 156.798 176.458C159.32 173.075 162.904 171.384 167.548 171.384Z" fill="#9EF2CE"/>
<path d="M93.621 218.181L87.735 238.161H84.576L80.094 222.501L75.585 238.161H72.372L66.567 218.181H69.726L74.046 233.895L78.555 218.181H81.741L86.196 233.814L90.597 218.181H93.621ZM99.3165 238.269H96.4275V223.149H99.3165V238.269ZM99.3165 220.557H96.4275V217.182H99.3165V220.557ZM109.219 225.525C107.995 225.525 107.086 226.074 106.492 227.172C105.988 228.072 105.736 229.296 105.736 230.844C105.736 234.282 106.897 236.001 109.219 236.001C110.335 236.001 111.217 235.443 111.865 234.327C112.387 233.373 112.648 232.185 112.648 230.763C112.648 229.341 112.387 228.153 111.865 227.199C111.235 226.083 110.353 225.525 109.219 225.525ZM115.375 238.296H112.648V236.946C111.748 238.062 110.515 238.62 108.949 238.62C106.987 238.62 105.466 237.891 104.386 236.433C103.378 235.011 102.874 233.148 102.874 230.844C102.874 228.468 103.342 226.596 104.278 225.228C105.304 223.698 106.861 222.933 108.949 222.933C110.389 222.933 111.622 223.527 112.648 224.715V216.615H115.375V238.296ZM125.566 225.876C123.28 225.876 122.137 227.469 122.137 230.655C122.137 233.607 123.244 235.083 125.458 235.083C126.646 235.083 127.546 234.669 128.158 233.841C128.716 233.067 128.995 232.005 128.995 230.655C128.995 228.963 128.716 227.748 128.158 227.01C127.618 226.254 126.754 225.876 125.566 225.876ZM131.722 223.581V235.137C131.722 239.799 129.454 242.13 124.918 242.13C123.244 242.13 121.723 241.86 120.355 241.32L120.598 238.566C121.93 239.232 123.379 239.565 124.945 239.565C127.519 239.565 128.851 238.431 128.941 236.163L128.968 236.028C128.176 237.144 127.006 237.702 125.458 237.702C123.352 237.702 121.741 236.928 120.625 235.38C119.689 234.102 119.221 232.5 119.221 230.574C119.221 228.288 119.716 226.515 120.706 225.255C121.768 223.923 123.298 223.257 125.296 223.257C126.934 223.257 128.167 223.671 128.995 224.499V223.581H131.722ZM147.448 231.924H138.349C138.403 233.22 138.754 234.228 139.402 234.948C140.068 235.722 140.986 236.109 142.156 236.109C143.776 236.109 145.207 235.758 146.449 235.056V237.783C145.009 238.323 143.551 238.593 142.075 238.593C139.753 238.593 138.025 237.855 136.891 236.379C135.901 235.065 135.406 233.229 135.406 230.871C135.406 228.603 135.955 226.758 137.053 225.336C138.151 223.914 139.627 223.203 141.481 223.203C143.551 223.203 145.099 223.941 146.125 225.417C147.007 226.677 147.448 228.342 147.448 230.412V231.924ZM144.505 229.359C144.505 228.351 144.244 227.505 143.722 226.821C143.182 226.101 142.471 225.741 141.589 225.741C140.689 225.741 139.924 226.11 139.294 226.848C138.664 227.586 138.349 228.423 138.349 229.359H144.505ZM158.03 238.161C157.346 238.449 156.572 238.593 155.708 238.593C153.998 238.593 152.891 238.134 152.387 237.216C152.009 236.604 151.82 235.425 151.82 233.679V226.038H149.498V223.365H151.82V220.152L154.736 219.207V223.365H157.598V226.038H154.736V234.435C154.736 235.479 155.213 236.001 156.167 236.001C156.797 236.001 157.346 235.884 157.814 235.65L158.03 238.161Z" fill="#9EF2CE"/>
</g>
<defs>
<linearGradient id="paint0_linear_2_12" x1="383" y1="54.5" x2="34" y2="256" gradientUnits="userSpaceOnUse">
<stop stop-color="#9EF2CE"/>
<stop offset="1" stop-color="#14AA6A"/>
</linearGradient>
<linearGradient id="paint1_linear_2_12" x1="346" y1="31.7917" x2="346" y2="132" gradientUnits="userSpaceOnUse">
<stop stop-color="#00E784"/>
<stop offset="1" stop-color="#A6F3D2"/>
</linearGradient>
<clipPath id="clip0_2_12">
<rect width="480" height="300" fill="white"/>
</clipPath>
</defs>
</svg>
